# xmcd
#
# Track frame offsets:
#	150
#	12388
#	24611
#	40263
#	65351
#	73373
#	83938
#	96784
#	108629
#
# Disc length: 1855 seconds
#
# Revision: 1
# Processed by: cddbd v1.4PL0 Copyright (c) Steve Scherf et al.
# Submitted via: audiograbber 1.80
#
DISCID=7a073d09
DTITLE=Matti Johansson - Blues på äldre dar
DYEAR=1900
DGENRE=
TTITLE0=Tåglåt
TTITLE1=Blues på äldre dar
TTITLE2=När man dör
TTITLE3=Nässelsång
TTITLE4=Jävla väder
TTITLE5=En raggarbruds farväl
TTITLE6=Hem igen
TTITLE7=Som hallon på ett strå
TTITLE8=Slölåt
EXTD=
EXTT0=
EXTT1=
EXTT2=
EXTT3=
EXTT4=
EXTT5=
EXTT6=
EXTT7=
EXTT8=
PLAYORDER=
